<svg width="26" height="25" viewBox="0 0 26 25" fill="none" xmlns="http://www.w3.org/2000/svg">
<path fill-rule="evenodd" clip-rule="evenodd" d="M7.796 5.94617C8.30735 5.62216 8.90853 5.44922 9.52353 5.44922C9.91837 5.44922 10.2385 5.75276 10.2385 6.12719C10.2385 6.50163 9.91837 6.80516 9.52353 6.80516C9.19133 6.80516 8.8666 6.89858 8.59039 7.0736C8.31418 7.24861 8.0989 7.49737 7.97177 7.78842C7.84465 8.07946 7.81139 8.39972 7.8762 8.70869C7.941 9.01766 8.10097 9.30146 8.33587 9.52422C8.57076 9.74697 8.87004 9.89867 9.19585 9.96013C9.52167 10.0216 9.85938 9.99004 10.1663 9.86949C10.4732 9.74894 10.7355 9.54478 10.9201 9.28285C11.1046 9.02092 11.2031 8.71297 11.2031 8.39795C11.2031 8.02351 11.5232 7.71998 11.9181 7.71998C12.3129 7.71998 12.633 8.02351 12.633 8.39795C12.633 8.98115 12.4506 9.55126 12.109 10.0362C11.7673 10.5211 11.2817 10.899 10.7135 11.1222C10.1453 11.3454 9.52008 11.4038 8.9169 11.29C8.31372 11.1762 7.75967 10.8954 7.32481 10.483C6.88994 10.0706 6.59379 9.54521 6.47381 8.97322C6.35383 8.40122 6.41541 7.80833 6.65076 7.26952C6.88611 6.73071 7.28465 6.27018 7.796 5.94617Z" fill="#8D98AA"/>
<path fill-rule="evenodd" clip-rule="evenodd" d="M25.0578 9.38086C25.447 9.38086 25.7624 9.68626 25.7624 10.063V15.7746C25.7624 18.6965 25.1665 20.9193 23.6507 22.3948C22.1339 23.8713 19.8481 24.4521 16.8445 24.4521H9.80466C6.80205 24.4521 4.51621 23.8716 2.99924 22.3952C1.4832 20.9198 0.886719 18.697 0.886719 15.7746V13.4781C0.886719 13.1014 1.2022 12.796 1.59136 12.796C1.98052 12.796 2.296 13.1014 2.296 13.4781V15.7746C2.296 18.5639 2.87392 20.3388 3.99841 21.4331C5.12196 22.5266 6.94278 23.0879 9.80466 23.0879H16.8445C19.7073 23.0879 21.5281 22.5264 22.6514 21.4329C23.7757 20.3384 24.3532 18.5635 24.3532 15.7746V10.063C24.3532 9.68626 24.6686 9.38086 25.0578 9.38086Z" fill="#8D98AA"/>
<path fill-rule="evenodd" clip-rule="evenodd" d="M3.02857 2.87647C4.56571 1.43026 6.88197 0.861328 9.92674 0.861328H14.6869C15.0794 0.861328 15.3976 1.16066 15.3976 1.52991C15.3976 1.89916 15.0794 2.19849 14.6869 2.19849H9.92674C7.0222 2.19849 5.17376 2.74921 4.03353 3.82199C2.8933 4.89477 2.30796 6.63386 2.30796 9.36658C2.30796 9.73582 1.9898 10.0352 1.59734 10.0352C1.20487 10.0352 0.886719 9.73582 0.886719 9.36658C0.886719 6.50193 1.49142 4.32269 3.02857 2.87647Z" fill="#8D98AA"/>
<path fill-rule="evenodd" clip-rule="evenodd" d="M16.7812 4.79395C16.7812 4.43205 17.1124 4.13867 17.5209 4.13867H24.3335C24.742 4.13867 25.0732 4.43205 25.0732 4.79395C25.0732 5.15584 24.742 5.44922 24.3335 5.44922H17.5209C17.1124 5.44922 16.7812 5.15584 16.7812 4.79395Z" fill="#8D98AA"/>
<path fill-rule="evenodd" clip-rule="evenodd" d="M20.9254 0.861328C21.307 0.861328 21.6164 1.17536 21.6164 1.56274V8.0232C21.6164 8.41058 21.307 8.72461 20.9254 8.72461C20.5437 8.72461 20.2344 8.41058 20.2344 8.0232V1.56274C20.2344 1.17536 20.5437 0.861328 20.9254 0.861328Z" fill="#8D98AA"/>
<path fill-rule="evenodd" clip-rule="evenodd" d="M20.2692 13.7548L15.3788 17.7693L15.3658 17.7797C14.7713 18.2445 14.0253 18.4987 13.2554 18.4987C12.4855 18.4987 11.7395 18.2445 11.145 17.7797C11.1386 17.7747 11.1323 17.7696 11.126 17.7643L10.7485 17.4474C10.4324 17.2055 10.0441 17.0642 9.6386 17.0436C9.2306 17.0229 8.82622 17.1256 8.48346 17.3368L2.68178 21.0605C2.35795 21.2684 1.91812 21.1874 1.6994 20.8796C1.48069 20.5719 1.56591 20.1539 1.88974 19.9461L7.70595 16.213C8.30113 15.8441 9.0044 15.6647 9.71397 15.7007C10.4235 15.7366 11.1027 15.9861 11.6532 16.4131C11.6604 16.4187 11.6674 16.4243 11.6743 16.4301L12.0529 16.748C12.3927 17.0105 12.8173 17.1538 13.2554 17.1538C13.6947 17.1538 14.1205 17.0097 14.4607 16.7459L19.3511 12.7314L19.3641 12.7209C19.9586 12.2561 20.7046 12.002 21.4745 12.002C22.2444 12.002 22.9904 12.2561 23.585 12.7209L23.598 12.7314L25.5178 14.3075C25.8135 14.5503 25.8462 14.9749 25.5907 15.256C25.3353 15.537 24.8884 15.568 24.5927 15.3252L22.6798 13.7548C22.3395 13.491 21.9138 13.3468 21.4745 13.3468C21.0352 13.3468 20.6095 13.491 20.2692 13.7548Z" fill="#8D98AA"/>
</svg>

