<svg width="187" height="42" viewBox="0 0 187 42" fill="none" xmlns="http://www.w3.org/2000/svg">
<mask id="mask0_36_1811" style="mask-type:alpha" maskUnits="userSpaceOnUse" x="1" y="1" width="185" height="40">
<rect width="184" height="40" transform="translate(1.27344 1)" fill="url(#paint0_linear_36_1811)"/>
</mask>
<g mask="url(#mask0_36_1811)">
<path d="M179.989 38.8526L185.273 41H1.27344V1C2.12751 2.19299 3.89974 8.0734 4.15596 8.0734C4.41219 8.0734 6.07764 3.38975 6.87834 4.10555L13.7643 6.25293L17.7678 15.2314L24.1734 8.00015L27.5363 5.85276L32.3405 15.2314H37.3048L41.4684 10.2208C43.0698 9.50499 46.3366 8.0734 46.5929 8.0734C46.8491 8.0734 48.9416 6.64181 49.9558 5.92602H52.518L58.6033 10.6942L63.8879 10.2208L66.29 15.2314L73.4962 17.3787L77.1794 19.5261L81.3431 23.1051L85.3465 19.4642H87.1081L91.9122 24.3056L96.5563 23.1051L100.56 19.5261H102.962L107.125 24.3676L113.051 19.5261L118.656 16.0317L124.26 23.1051L129.865 36.1359L134.029 31.6947L138.513 33.842L144.598 31.6947L154.206 35.9894L158.69 33.842L164.776 38.8526L169.9 35.9894L175.025 38.8526H179.989Z" fill="#FFF2F2"/>
</g>
<path d="M185.273 41L179.989 38.8526H175.025L169.9 35.9894L164.776 38.8526L158.69 33.842L154.206 35.9894L144.598 31.6947L138.513 33.842L134.029 31.6947L129.865 36.1359L124.26 23.1051L118.656 16.0317L113.051 19.5261L107.125 24.3676L102.962 19.5261H100.56L96.5563 23.1051L91.9122 24.3056L87.1081 19.4642H85.3465L81.3431 23.1051L77.1794 19.5261L73.4962 17.3787L66.29 15.2314L63.8879 10.2208L58.6033 10.6942L52.518 5.92602H49.9558C48.9416 6.64181 46.8491 8.0734 46.5929 8.0734C46.3366 8.0734 43.0698 9.50499 41.4684 10.2208L37.3048 15.2314H32.3405L27.5363 5.85276L24.1734 8.00015L17.7678 15.2314L13.7643 6.25293L6.87834 4.10555C6.07764 3.38975 4.41219 8.0734 4.15596 8.0734C3.89974 8.0734 2.12751 2.19299 1.27344 1" stroke="#F14141" stroke-width="2" stroke-linecap="round" stroke-linejoin="round"/>
<g opacity="0.2">
<rect x="108.211" y="7" width="20" height="20" rx="10" stroke="#F14141" stroke-width="2"/>
</g>
<rect x="113.211" y="12" width="10" height="10" rx="5" fill="white"/>
<rect x="113.211" y="12" width="10" height="10" rx="5" stroke="#F14141" stroke-width="2"/>
<defs>
<linearGradient id="paint0_linear_36_1811" x1="92" y1="0" x2="92" y2="40" gradientUnits="userSpaceOnUse">
<stop/>
<stop offset="1" stop-opacity="0"/>
</linearGradient>
</defs>
</svg>
