<svg width="187" height="44" viewBox="0 0 187 44" fill="none" xmlns="http://www.w3.org/2000/svg">
<mask id="mask0_36_1827" style="mask-type:alpha" maskUnits="userSpaceOnUse" x="1" y="3" width="185" height="40">
<rect width="184" height="40" transform="translate(1.27344 3)" fill="url(#paint0_linear_36_1827)"/>
</mask>
<g mask="url(#mask0_36_1827)">
<path d="M7.89465 38.1724L1.27344 43H185.273V3L182.66 9.89655H179.175C178.246 11.046 176.317 13.3448 176.039 13.3448C175.76 13.3448 173.948 14.7241 173.076 15.4138L165.584 17.4828L161.228 20.2414L154.258 17.4828L150.599 15.4138L145.372 20.2414H139.97L135.44 15.4138C133.698 14.7241 130.143 13.3448 129.864 13.3448C129.586 13.3448 127.309 11.9655 126.205 11.2759H123.417L116.796 13.3448L111.046 15.4138L108.433 20.2414L100.592 22.3103L96.584 24.3793L92.0537 27.8276L87.6977 32.3535H85.781L80.5537 32.7845L75.5007 27.8276L71.1446 24.3793H68.531L64.0007 22.3103L57.5537 24.3793H51.4553L45.3568 27.8276L39.2583 31.9655L34.728 36.1035L29.8492 38.1724L23.228 36.1035L18.0007 38.1724L12.7734 40.2414L7.89465 38.1724Z" fill="#F2FFF8"/>
</g>
<path d="M1.27344 43L7.89465 38.1724L12.7734 40.2414L18.0007 38.1724L23.228 36.1035L29.8492 38.1724L34.728 36.1035L39.2583 31.9655L45.3568 27.8276L51.4553 24.3793H57.5537L64.0007 22.3103L68.531 24.3793H71.1446L75.5007 27.8276L80.5537 32.7845L85.781 32.3535H87.6977L92.0537 27.8276L96.584 24.3793L100.592 22.3103L108.433 20.2414L111.046 15.4138L116.796 13.3448L123.417 11.2759H126.205C127.309 11.9655 129.586 13.3448 129.864 13.3448C130.143 13.3448 133.698 14.7241 135.44 15.4138L139.97 20.2414H145.372L150.599 15.4138L154.258 17.4828L161.228 20.2414L165.584 17.4828L173.076 15.4138C173.948 14.7241 175.76 13.3448 176.039 13.3448C176.317 13.3448 178.246 11.046 179.175 9.89655H182.66L185.273 3" stroke="#37C779" stroke-width="2" stroke-linecap="round" stroke-linejoin="round"/>
<g opacity="0.2">
<rect x="117.72" y="1" width="20" height="20" rx="10" stroke="#37C779" stroke-width="2"/>
</g>
<rect x="122.72" y="6" width="10" height="10" rx="5" fill="white"/>
<rect x="122.72" y="6" width="10" height="10" rx="5" stroke="#37C779" stroke-width="2"/>
<defs>
<linearGradient id="paint0_linear_36_1827" x1="92" y1="0" x2="92" y2="40" gradientUnits="userSpaceOnUse">
<stop/>
<stop offset="1" stop-opacity="0"/>
</linearGradient>
</defs>
</svg>
