<svg width="56" height="59" viewBox="0 0 56 59" fill="none" xmlns="http://www.w3.org/2000/svg">
<path d="M5.23287 56.7198C5.87287 56.7198 6.42287 56.5098 6.88287 56.0898C7.34287 55.6698 7.57287 55.1398 7.57287 54.4998C7.57287 53.8598 7.36287 53.3098 6.94287 52.8498C6.52287 52.3898 5.99287 52.1598 5.35287 52.1598C4.71287 52.1598 4.16287 52.3698 3.70287 52.7898C3.24287 53.2098 3.01287 53.7398 3.01287 54.3798C3.01287 55.0198 3.22287 55.5698 3.64287 56.0298C4.06287 56.4898 4.59287 56.7198 5.23287 56.7198ZM5.23287 53.7798C5.55287 53.7398 5.77287 53.8598 5.89287 54.1398C6.01287 54.4198 5.96287 54.6698 5.74287 54.8898C5.52287 55.1098 5.27287 55.1598 4.99287 55.0398C4.71287 54.9198 4.59287 54.6998 4.63287 54.3798C4.63287 54.2198 4.69287 54.0798 4.81287 53.9598C4.93287 53.8398 5.07287 53.7798 5.23287 53.7798ZM37.2129 29.4798H24.2529C24.0529 29.5198 23.9029 29.6198 23.8029 29.7798C23.7029 29.9398 23.6529 30.1098 23.6529 30.2898C23.6529 30.4698 23.7029 30.6398 23.8029 30.7998C23.9029 30.9598 24.0529 31.0598 24.2529 31.0998H37.2129C37.4129 31.0598 37.5629 30.9598 37.6629 30.7998C37.7629 30.6398 37.8129 30.4698 37.8129 30.2898C37.8129 30.1098 37.7629 29.9398 37.6629 29.7798C37.5629 29.6198 37.4129 29.5198 37.2129 29.4798ZM31.6329 33.5598H24.2529C24.0129 33.5598 23.8129 33.6398 23.6529 33.7998C23.4929 33.9598 23.4129 34.1598 23.4129 34.3998C23.4129 34.6398 23.4929 34.8398 23.6529 34.9998C23.8129 35.1598 24.0129 35.2398 24.2529 35.2398H31.6329C31.8729 35.2398 32.0729 35.1598 32.2329 34.9998C32.3929 34.8398 32.4729 34.6398 32.4729 34.3998C32.4729 34.1598 32.3929 33.9598 32.2329 33.7998C32.0729 33.6398 31.8729 33.5598 31.6329 33.5598ZM46.7529 27.1398C46.3129 27.1398 45.8729 27.1798 45.4329 27.2598V11.5398C45.4329 11.2998 45.3529 11.0998 45.1929 10.9398L35.0529 0.859756C34.8929 0.739758 34.7129 0.679756 34.5129 0.679756H19.5129C18.5929 0.679756 17.8029 0.999756 17.1429 1.63976C16.4829 2.27976 16.1529 3.05976 16.1529 3.97976V19.8798L4.81287 28.8798C4.81287 28.9198 4.79287 28.9398 4.75287 28.9398C3.87287 29.8598 3.45287 30.9398 3.49287 32.1798V49.5198H2.29287C1.77287 49.5198 1.31287 49.7198 0.912866 50.1198C0.512866 50.5198 0.312866 50.9998 0.312866 51.5598V57.0798C0.312866 57.5998 0.512866 58.0498 0.912866 58.4298C1.31287 58.8098 1.77287 58.9998 2.29287 58.9998H20.2929C20.8129 58.9998 21.2629 58.8098 21.6429 58.4298C22.0229 58.0498 22.2129 57.5998 22.2129 57.0798V51.5598C22.2129 50.9998 22.0229 50.5198 21.6429 50.1198C21.2629 49.7198 20.8129 49.5198 20.2929 49.5198H19.7529V48.3798C20.8729 48.1798 21.8029 47.6598 22.5429 46.8198C23.2829 45.9798 23.6529 44.9998 23.6529 43.8798V40.0398H38.4129C39.3329 42.1198 40.8229 43.6298 42.8829 44.5698C44.9429 45.5098 47.0629 45.6598 49.2429 45.0198C51.4229 44.3798 53.1329 43.1098 54.3729 41.2098C55.6129 39.3098 56.0729 37.2398 55.7529 34.9998C55.4329 32.7598 54.4229 30.8898 52.7229 29.3898C51.0229 27.8898 49.0329 27.1398 46.7529 27.1398ZM35.3529 3.43976L42.6129 10.7598H37.0329C36.5529 10.7598 36.1529 10.5898 35.8329 10.2498C35.5129 9.90976 35.3529 9.49976 35.3529 9.01976V3.43976ZM20.2329 51.1998C20.4329 51.1998 20.5529 51.2998 20.5929 51.4998V57.0198C20.5929 57.0998 20.5529 57.1798 20.4729 57.2598C20.3929 57.3398 20.3129 57.3798 20.2329 57.3798H2.29287C2.09287 57.3398 1.99287 57.2198 1.99287 57.0198V51.4998C2.03287 51.3398 2.13287 51.2398 2.29287 51.1998H20.2329ZM21.9729 43.8798C21.9729 44.6798 21.6829 45.3698 21.1029 45.9498C20.5229 46.5298 19.8129 46.8198 18.9729 46.8198C18.7329 46.8198 18.5329 46.8998 18.3729 47.0598C18.2129 47.2198 18.1329 47.4198 18.1329 47.6598V49.5198H5.11287V32.1798C5.11287 31.3798 5.37287 30.6998 5.89287 30.1398L16.1529 21.9798V28.5798L9.01287 34.2198C8.85287 34.3798 8.76287 34.5598 8.74287 34.7598C8.72287 34.9598 8.78287 35.1498 8.92287 35.3298C9.06287 35.5098 9.23287 35.6198 9.43287 35.6598C9.63287 35.6998 9.83287 35.6598 10.0329 35.5398L18.5529 28.7598L18.7329 28.9398C19.0929 29.3398 19.2729 29.8098 19.2729 30.3498C19.2729 30.8898 19.0929 31.3598 18.7329 31.7598L14.7129 35.7798C14.5529 35.9398 14.4729 36.1198 14.4729 36.3198L14.4129 37.2198C14.4129 37.8998 14.5629 38.5698 14.8629 39.2298C15.1629 39.8898 15.2829 40.5898 15.2229 41.3298C15.1629 42.0698 14.9329 42.7598 14.5329 43.3998C14.4529 43.5598 14.4129 43.7198 14.4129 43.8798V45.7398C14.2929 46.0998 14.4029 46.3998 14.7429 46.6398C15.0829 46.8798 15.4129 46.8798 15.7329 46.6398C16.0529 46.3998 16.1529 46.0998 16.0329 45.7398V44.1198C16.5529 43.2798 16.8429 42.3598 16.9029 41.3598C16.9629 40.3598 16.7729 39.3998 16.3329 38.4798C16.1329 38.1198 16.0329 37.7198 16.0329 37.2798L16.0929 36.7398L16.1529 36.6798C16.1529 37.5998 16.4829 38.3898 17.1429 39.0498C17.8029 39.7098 18.5929 40.0398 19.5129 40.0398H21.9729V43.8798ZM37.8729 38.4198H19.5129C19.0329 38.4198 18.6229 38.2398 18.2829 37.8798C17.9429 37.5198 17.7729 37.0998 17.7729 36.6198V34.9998L19.8729 32.9598C20.5929 32.2398 20.9529 31.3798 20.9529 30.3798C20.9529 29.3798 20.5929 28.5198 19.8729 27.7998L19.2129 27.0798C19.0529 26.9198 18.8629 26.8298 18.6429 26.8098C18.4229 26.7898 18.2329 26.8598 18.0729 27.0198L17.7729 27.3198V3.97976C17.7729 3.49976 17.9429 3.09976 18.2829 2.77976C18.6229 2.45976 19.0329 2.29976 19.5129 2.29976H33.7329V9.01976C33.7329 9.93976 34.0529 10.7298 34.6929 11.3898C35.3329 12.0498 36.1129 12.3798 37.0329 12.3798H43.8129V27.6798C41.9729 28.3198 40.4829 29.4298 39.3429 31.0098C38.2029 32.5898 37.6329 34.3598 37.6329 36.3198C37.6329 37.0398 37.7129 37.7398 37.8729 38.4198ZM46.7529 43.7598C45.3929 43.7598 44.1429 43.4198 43.0029 42.7398C41.8629 42.0598 40.9529 41.1498 40.2729 40.0098C39.5929 38.8698 39.2529 37.6198 39.2529 36.2598C39.2529 34.8998 39.5929 33.6498 40.2729 32.5098C40.9529 31.3698 41.8629 30.4598 43.0029 29.7798C44.1429 29.0998 45.3929 28.7598 46.7529 28.7598C48.1129 28.7598 49.3629 29.0998 50.5029 29.7798C51.6429 30.4598 52.5529 31.3698 53.2329 32.5098C53.9129 33.6498 54.2529 34.8998 54.2529 36.2598C54.2529 37.6198 53.9129 38.8698 53.2329 40.0098C52.5529 41.1498 51.6429 42.0598 50.5029 42.7398C49.3629 43.4198 48.1129 43.7598 46.7529 43.7598ZM40.5129 20.1198C40.5129 19.4798 40.3329 18.9198 39.9729 18.4398C39.6129 17.9598 39.1329 17.6398 38.5329 17.4798L36.9129 14.4198C36.0729 12.8998 35.0529 12.1398 33.8529 12.1398H25.3929C24.7929 12.1398 24.2229 12.3398 23.6829 12.7398C23.1429 13.1398 22.6929 13.7198 22.3329 14.4798L20.6529 17.4798C20.0929 17.5998 19.6229 17.9098 19.2429 18.4098C18.8629 18.9098 18.6729 19.4798 18.6729 20.1198L19.2129 24.5598C19.2129 24.8798 19.3029 25.1798 19.4829 25.4598C19.6629 25.7398 19.9129 25.9598 20.2329 26.1198V27.1998C20.2329 27.5598 20.3629 27.8598 20.6229 28.0998C20.8829 28.3398 21.1929 28.4598 21.5529 28.4598H22.9929C23.3529 28.4598 23.6729 28.3398 23.9529 28.0998C24.2329 27.8598 24.3729 27.5598 24.3729 27.1998V26.2998H34.8729V27.1998C34.8729 27.5598 34.9929 27.8598 35.2329 28.0998C35.4729 28.3398 35.7729 28.4598 36.1329 28.4598H37.5729C37.9329 28.4598 38.2429 28.3398 38.5029 28.0998C38.7629 27.8598 38.8929 27.5598 38.8929 27.1998V26.1198C39.2129 25.9598 39.4629 25.7398 39.6429 25.4598C39.8229 25.1798 39.9129 24.8798 39.9129 24.5598L40.5129 20.1198ZM23.7729 15.1998C24.2929 14.2398 24.8329 13.7598 25.3929 13.7598H33.8529C34.3729 13.7598 34.9129 14.2398 35.4729 15.1998L36.6729 17.4198H36.1329C35.9729 16.8198 35.6429 16.3298 35.1429 15.9498C34.6429 15.5698 34.0829 15.3798 33.4629 15.3798C32.8429 15.3798 32.2829 15.5698 31.7829 15.9498C31.2829 16.3298 30.9529 16.8198 30.7929 17.4198H22.5129L23.7729 15.1998ZM34.3329 17.4198H32.5929C32.8329 17.1398 33.1229 16.9998 33.4629 16.9998C33.8029 16.9998 34.0929 17.1398 34.3329 17.4198ZM22.6929 26.7798H21.9129V26.2998H22.6929V26.7798ZM37.2129 26.7798H36.5529V26.2998H37.2129V26.7798ZM38.2929 24.3798C38.2929 24.4198 38.2929 24.4798 38.2929 24.5598C38.2929 24.6398 38.2529 24.6798 38.1729 24.6798H20.9529C20.8729 24.6798 20.8329 24.6398 20.8329 24.5598L20.2929 20.0598C20.2929 19.8198 20.3629 19.5998 20.5029 19.3998C20.6429 19.1998 20.8329 19.0798 21.0729 19.0398H37.9929C38.2329 19.0398 38.4429 19.1498 38.6229 19.3698C38.8029 19.5898 38.8929 19.8198 38.8929 20.0598L38.2929 24.3798ZM32.4129 21.8598H26.7729C26.4129 21.7398 26.1129 21.8498 25.8729 22.1898C25.6329 22.5298 25.6329 22.8598 25.8729 23.1798C26.1129 23.4998 26.4129 23.5998 26.7729 23.4798H32.4129C32.6129 23.4398 32.7629 23.3398 32.8629 23.1798C32.9629 23.0198 33.0129 22.8498 33.0129 22.6698C33.0129 22.4898 32.9629 22.3198 32.8629 22.1598C32.7629 21.9998 32.6129 21.8998 32.4129 21.8598ZM22.8129 20.1798C22.2529 20.1798 21.7729 20.3798 21.3729 20.7798C20.9729 21.1798 20.7729 21.6598 20.7729 22.2198C20.7729 22.7798 20.9729 23.2598 21.3729 23.6598C21.7729 24.0598 22.2529 24.2598 22.8129 24.2598C23.3729 24.2598 23.8529 24.0598 24.2529 23.6598C24.6529 23.2598 24.8529 22.7798 24.8529 22.2198C24.8529 21.6598 24.6529 21.1798 24.2529 20.7798C23.8529 20.3798 23.3729 20.1798 22.8129 20.1798ZM22.8129 22.6398C22.6929 22.6398 22.5929 22.5998 22.5129 22.5198C22.4329 22.4398 22.3929 22.3398 22.3929 22.2198C22.3929 22.0998 22.4329 21.9998 22.5129 21.9198C22.5929 21.8398 22.6929 21.7998 22.8129 21.7998C22.9329 21.7998 23.0329 21.8398 23.1129 21.9198C23.1929 21.9998 23.2329 22.0998 23.2329 22.2198C23.2329 22.3398 23.1929 22.4398 23.1129 22.5198C23.0329 22.5998 22.9329 22.6398 22.8129 22.6398ZM36.3729 20.1798C35.8129 20.1798 35.3329 20.3798 34.9329 20.7798C34.5329 21.1798 34.3329 21.6598 34.3329 22.2198C34.3329 22.7798 34.5329 23.2598 34.9329 23.6598C35.3329 24.0598 35.8129 24.2598 36.3729 24.2598C36.9329 24.2598 37.4129 24.0598 37.8129 23.6598C38.2129 23.2598 38.4129 22.7798 38.4129 22.2198C38.4129 21.6598 38.2129 21.1798 37.8129 20.7798C37.4129 20.3798 36.9329 20.1798 36.3729 20.1798ZM36.3729 22.6398C36.2529 22.6398 36.1529 22.5998 36.0729 22.5198C35.9929 22.4398 35.9529 22.3398 35.9529 22.2198C35.9529 22.0998 35.9929 21.9998 36.0729 21.9198C36.1529 21.8398 36.2529 21.7998 36.3729 21.7998C36.4929 21.7998 36.5929 21.8398 36.6729 21.9198C36.7529 21.9998 36.7929 22.0998 36.7929 22.2198C36.7929 22.3398 36.7529 22.4398 36.6729 22.5198C36.5929 22.5998 36.4929 22.6398 36.3729 22.6398ZM46.7529 33.0198C47.0729 33.0198 47.3529 33.1398 47.5929 33.3798C47.8329 33.6198 47.9529 33.8998 47.9529 34.2198C47.9529 34.4598 48.0329 34.6498 48.1929 34.7898C48.3529 34.9298 48.5429 34.9998 48.7629 34.9998C48.9829 34.9998 49.1729 34.9198 49.3329 34.7598C49.4929 34.5998 49.5729 34.4198 49.5729 34.2198C49.5729 33.5798 49.3829 33.0098 49.0029 32.5098C48.6229 32.0098 48.1329 31.6598 47.5329 31.4598V31.0998C47.4929 30.8998 47.3929 30.7498 47.2329 30.6498C47.0729 30.5498 46.9029 30.4998 46.7229 30.4998C46.5429 30.4998 46.3729 30.5498 46.2129 30.6498C46.0529 30.7498 45.9529 30.8998 45.9129 31.0998V31.4598C45.1529 31.5798 44.5429 31.9498 44.0829 32.5698C43.6229 33.1898 43.4429 33.8898 43.5429 34.6698C43.6429 35.4498 44.0129 36.0698 44.6529 36.5298C45.2929 36.9898 45.9929 37.1598 46.7529 37.0398C47.0729 37.0398 47.3529 37.1598 47.5929 37.3998C47.8329 37.6398 47.9529 37.9198 47.9529 38.2398C47.9529 38.5598 47.8329 38.8398 47.5929 39.0798C47.3529 39.3198 47.0729 39.4398 46.7529 39.4398C46.4329 39.4398 46.1529 39.3198 45.9129 39.0798C45.6729 38.8398 45.5529 38.5598 45.5529 38.2398C45.5529 37.9998 45.4729 37.8098 45.3129 37.6698C45.1529 37.5298 44.9529 37.4598 44.7129 37.4598C44.4729 37.4598 44.2729 37.5298 44.1129 37.6698C43.9529 37.8098 43.8729 37.9998 43.8729 38.2398C43.8729 38.8798 44.0629 39.4598 44.4429 39.9798C44.8229 40.4998 45.3129 40.8398 45.9129 40.9998V41.4798C45.9529 41.6798 46.0529 41.8298 46.2129 41.9298C46.3729 42.0298 46.5429 42.0798 46.7229 42.0798C46.9029 42.0798 47.0729 42.0298 47.2329 41.9298C47.3929 41.8298 47.4929 41.6798 47.5329 41.4798V40.9998C48.2929 40.8798 48.8929 40.5098 49.3329 39.8898C49.7729 39.2698 49.9329 38.5898 49.8129 37.8498C49.6929 37.1098 49.3429 36.4998 48.7629 36.0198C48.1829 35.5398 47.5129 35.3398 46.7529 35.4198C46.4329 35.4198 46.1529 35.2998 45.9129 35.0598C45.6729 34.8198 45.5529 34.5398 45.5529 34.2198C45.5529 33.8998 45.6729 33.6198 45.9129 33.3798C46.1529 33.1398 46.4329 33.0198 46.7529 33.0198Z" fill="#253241"/>
</svg>
