<svg width="59" height="54" viewBox="0 0 59 54" fill="none" xmlns="http://www.w3.org/2000/svg">
<path d="M53.5729 23.1199C53.4129 22.8799 53.1929 22.7599 52.9129 22.7599C52.5929 22.7599 52.3529 22.8799 52.1929 23.1199L47.8729 29.7799C47.7129 30.0599 47.7129 30.3399 47.8729 30.6199C48.0329 30.8999 48.2729 31.0399 48.5929 31.0399H51.8329C51.4329 33.9599 50.5329 36.7099 49.1329 39.2899C47.7329 41.8699 45.9129 44.1199 43.6729 46.0399C41.5529 47.8799 39.2229 49.2999 36.6829 50.2999C34.1429 51.2999 31.6129 51.7999 29.0929 51.7999H29.0329C25.6729 51.7999 22.3729 50.9399 19.1329 49.2199C15.7329 47.4599 12.9129 45.0399 10.6729 41.9599C10.5129 41.5999 10.2429 41.4299 9.86292 41.4499C9.48292 41.4699 9.23292 41.6599 9.11292 42.0199C8.99292 42.3799 9.07292 42.6799 9.35292 42.9199C11.7529 46.1999 14.7429 48.7699 18.3229 50.6299C21.9029 52.4899 25.4729 53.4199 29.0329 53.4199H29.0929C31.8129 53.4199 34.5329 52.8899 37.2529 51.8299C39.9729 50.7699 42.4529 49.2599 44.6929 47.2999C47.1329 45.2199 49.1129 42.7899 50.6329 40.0099C52.1529 37.2299 53.1129 34.2599 53.5129 31.0999H57.2329C57.5529 31.0999 57.7929 30.9499 57.9529 30.6499C58.1129 30.3499 58.0929 30.0599 57.8929 29.7799L53.5729 23.1199ZM50.0929 29.4199L52.9129 25.0999L55.7329 29.4199H50.0929ZM5.27292 30.9199C5.59292 30.9199 5.83292 30.7999 5.99292 30.5599L10.3129 23.8999C10.4729 23.6199 10.4729 23.3399 10.3129 23.0599C10.1529 22.7799 9.91292 22.6399 9.59292 22.6399L6.35292 22.5799C6.75292 19.6599 7.66292 16.9199 9.08292 14.3599C10.5029 11.7999 12.3329 9.55992 14.5729 7.63992C16.6529 5.79992 18.9729 4.37992 21.5329 3.37992C24.0929 2.37992 26.6329 1.87992 29.1529 1.87992C32.5129 1.87992 35.8129 2.73992 39.0529 4.45992C42.4529 6.21992 45.2729 8.63992 47.5129 11.7199C47.6729 12.0799 47.9429 12.2499 48.3229 12.2299C48.7029 12.2099 48.9529 12.0199 49.0729 11.6599C49.1929 11.2999 49.1129 10.9999 48.8329 10.7599C46.4329 7.47992 43.4429 4.90992 39.8629 3.04992C36.2829 1.18992 32.7129 0.259922 29.1529 0.259922C26.4329 0.299923 23.7029 0.849922 20.9629 1.90992C18.2229 2.96992 15.7329 4.45992 13.4929 6.37992C11.0529 8.45992 9.07292 10.8899 7.55292 13.6699C6.03292 16.4499 5.07292 19.4199 4.67292 22.5799H0.952917C0.632917 22.6199 0.402917 22.7699 0.262917 23.0299C0.122917 23.2899 0.132917 23.5599 0.292917 23.8399L4.61292 30.5599C4.77292 30.7999 4.99292 30.9199 5.27292 30.9199ZM8.09292 24.2599L5.27292 28.5799L2.45292 24.2599H8.09292ZM17.1529 26.9599C16.5129 26.9199 15.9529 27.1399 15.4729 27.6199C15.1129 27.9399 14.8929 28.3399 14.8129 28.8199C14.7329 29.2999 14.7829 29.7599 14.9629 30.1999C15.1429 30.6399 15.4329 30.9899 15.8329 31.2499C16.2329 31.5099 16.6729 31.6399 17.1529 31.6399H17.2129C17.8529 31.6399 18.4029 31.4099 18.8629 30.9499C19.3229 30.4899 19.5429 29.9299 19.5229 29.2699C19.5029 28.6099 19.2629 28.0599 18.8029 27.6199C18.3429 27.1799 17.7929 26.9599 17.1529 26.9599ZM17.1529 30.0199C16.9529 30.0199 16.7929 29.9499 16.6729 29.8099C16.5529 29.6699 16.4929 29.4999 16.4929 29.2999C16.4929 29.0999 16.5529 28.9299 16.6729 28.7899C16.7929 28.6499 16.9529 28.5799 17.1529 28.5799C17.3529 28.5799 17.5229 28.6499 17.6629 28.7899C17.8029 28.9299 17.8729 29.0999 17.8729 29.2999C17.8729 29.4999 17.8029 29.6699 17.6629 29.8099C17.5229 29.9499 17.3529 30.0199 17.1529 30.0199ZM41.0929 26.7199C40.4529 26.7199 39.9029 26.9499 39.4429 27.4099C38.9829 27.8699 38.7529 28.4199 38.7529 29.0599C38.7529 29.6999 38.9829 30.2499 39.4429 30.7099C39.9029 31.1699 40.4529 31.3999 41.0929 31.3999H41.1529C41.7929 31.3999 42.3329 31.1699 42.7729 30.7099C43.2129 30.2499 43.4329 29.6999 43.4329 29.0599C43.4329 28.4199 43.2029 27.8699 42.7429 27.4099C42.2829 26.9499 41.7329 26.7199 41.0929 26.7199ZM41.8729 29.0599C41.8729 29.2599 41.7929 29.4299 41.6329 29.5699C41.4729 29.7099 41.2929 29.7799 41.0929 29.7799C40.8929 29.7799 40.7229 29.7099 40.5829 29.5699C40.4429 29.4299 40.3729 29.2599 40.3729 29.0599C40.3729 28.8599 40.4429 28.6899 40.5829 28.5499C40.7229 28.4099 40.8929 28.3399 41.0929 28.3399C41.2929 28.3399 41.4729 28.4099 41.6329 28.5499C41.7929 28.6899 41.8729 28.8599 41.8729 29.0599ZM47.2729 23.5999C47.4329 23.4399 47.5129 23.2399 47.5129 22.9999C47.4729 22.5199 47.3629 22.0299 47.1829 21.5299C47.0029 21.0299 46.6629 20.6199 46.1629 20.2999C45.6629 19.9799 45.0729 19.8399 44.3929 19.8799H41.9329L40.7929 17.8399C40.1929 16.8399 39.6329 16.0799 39.1129 15.5599C38.3129 14.8399 37.4329 14.4799 36.4729 14.4799L21.7729 14.5999C20.8929 14.5999 20.0729 14.8999 19.3129 15.4999C18.5529 16.0999 17.9129 16.9399 17.3929 18.0199L16.2529 20.0599L13.7329 20.1199C13.0529 20.1199 12.4629 20.2799 11.9629 20.5999C11.4629 20.9199 11.1329 21.3399 10.9729 21.8599C10.8129 22.2999 10.7129 22.7599 10.6729 23.2399C10.6329 23.4799 10.7029 23.6899 10.8829 23.8699C11.0629 24.0499 11.2729 24.1399 11.5129 24.1399H12.6529C12.0529 24.8599 11.7729 25.6999 11.8129 26.6599L12.7129 33.5599C12.7529 34.0399 12.9229 34.4799 13.2229 34.8799C13.5229 35.2799 13.9129 35.5399 14.3929 35.6599V37.6399C14.3929 38.0399 14.5529 38.3899 14.8729 38.6899C15.1929 38.9899 15.5529 39.1399 15.9529 39.1399H18.2329C18.6329 39.1399 18.9829 38.9799 19.2829 38.6599C19.5829 38.3399 19.7329 37.9799 19.7329 37.5799V35.7199L38.6329 35.5999V37.4599C38.6329 37.8999 38.7829 38.2699 39.0829 38.5699C39.3829 38.8699 39.7529 39.0199 40.1929 39.0199H42.4729C42.9129 39.0199 43.2829 38.8599 43.5829 38.5399C43.8829 38.2199 44.0329 37.8399 44.0329 37.3999L43.9729 35.4199C44.4529 35.2599 44.8429 34.9899 45.1429 34.6099C45.4429 34.2299 45.5929 33.7999 45.5929 33.3199L46.4329 26.3599C46.4329 25.3999 46.1329 24.5599 45.5329 23.8399H46.6729C46.9129 23.8399 47.1129 23.7599 47.2729 23.5999ZM18.8329 18.7999C18.8329 18.7599 18.8329 18.7399 18.8329 18.7399C19.7129 17.0999 20.6929 16.2799 21.7729 16.2799L36.4729 16.1599C37.4729 16.1599 38.4329 16.9799 39.3529 18.6199L41.6329 22.6999L39.7129 22.7599C39.5129 21.8799 39.0529 21.1499 38.3329 20.5699C37.6129 19.9899 36.8029 19.6999 35.9029 19.6999C35.0029 19.6999 34.1929 19.9899 33.4729 20.5699C32.7529 21.1499 32.2929 21.8799 32.0929 22.7599L16.5529 22.9399L18.8329 18.7999ZM38.0329 22.7599H33.7729C33.8929 22.2799 34.1529 21.8899 34.5529 21.5899C34.9529 21.2899 35.4029 21.1399 35.9029 21.1399C36.4029 21.1399 36.8529 21.2899 37.2529 21.5899C37.6529 21.8899 37.9129 22.2799 38.0329 22.7599ZM12.4729 22.4599C12.5129 22.4199 12.5329 22.3999 12.5329 22.3999C12.5729 22.1999 12.7029 22.0399 12.9229 21.9199C13.1429 21.7999 13.4129 21.7399 13.7329 21.7399H15.3529L14.9329 22.4599H12.4729ZM16.0729 37.5199L16.0129 35.7799L18.1129 35.7199V37.5199H16.0729ZM40.3129 37.3399L40.2529 35.5399H42.3529V37.3399H40.3129ZM43.9729 33.1399C43.9729 33.1799 43.9729 33.2199 43.9729 33.2599C43.9729 33.4199 43.9129 33.5599 43.7929 33.6799C43.6729 33.7999 43.5129 33.8599 43.3129 33.8599L14.9929 34.0999C14.8329 34.0999 14.6829 34.0399 14.5429 33.9199C14.4029 33.7999 14.3329 33.6599 14.3329 33.4999L13.4329 26.5999C13.4329 26.0399 13.6029 25.5699 13.9429 25.1899C14.2829 24.8099 14.6529 24.5999 15.0529 24.5599L15.1729 24.6199L43.0129 24.3799C43.5329 24.3799 43.9629 24.5699 44.3029 24.9499C44.6429 25.3299 44.8129 25.7999 44.8129 26.3599L43.9729 33.1399ZM43.1929 22.2199L42.8329 21.4999H44.3929C44.7129 21.4999 44.9929 21.5599 45.2329 21.6799C45.4729 21.7999 45.6129 21.9399 45.6529 22.0999C45.6529 22.1399 45.6729 22.1799 45.7129 22.2199H43.1929ZM33.4729 31.6399L24.8329 31.6999C24.5929 31.6999 24.3929 31.7799 24.2329 31.9399C24.0729 32.0999 23.9929 32.2999 23.9929 32.5399C23.9929 32.7799 24.0729 32.9799 24.2329 33.1399C24.3929 33.2999 24.5929 33.3799 24.8329 33.3799L33.5329 33.3199C33.7729 33.3199 33.9729 33.2299 34.1329 33.0499C34.2929 32.8699 34.3629 32.6699 34.3429 32.4499C34.3229 32.2299 34.2329 32.0399 34.0729 31.8799C33.9129 31.7199 33.7129 31.6399 33.4729 31.6399ZM25.2529 30.1399C25.4929 30.1399 25.6829 30.0599 25.8229 29.8999C25.9629 29.7399 26.0329 29.5399 26.0329 29.2999V27.8599C26.0329 27.6599 25.9529 27.4799 25.7929 27.3199C25.6329 27.1599 25.4529 27.0799 25.2529 27.0799H25.1929C24.9529 27.0799 24.7629 27.1599 24.6229 27.3199C24.4829 27.4799 24.4129 27.6799 24.4129 27.9199V29.2999C24.4129 29.5399 24.4929 29.7399 24.6529 29.8999C24.8129 30.0599 25.0129 30.1399 25.2529 30.1399ZM22.6129 27.0799C22.3729 27.0799 22.1729 27.1599 22.0129 27.3199C21.8529 27.4799 21.7729 27.6799 21.7729 27.9199L21.8329 29.2999C21.8329 29.5399 21.9029 29.7399 22.0429 29.8999C22.1829 30.0599 22.3729 30.1399 22.6129 30.1399C22.8529 30.1399 23.0529 30.0599 23.2129 29.8999C23.3729 29.7399 23.4529 29.5399 23.4529 29.2999V27.9199C23.4529 27.6799 23.3729 27.4799 23.2129 27.3199C23.0529 27.1599 22.8529 27.0799 22.6129 27.0799ZM35.6329 26.9599C35.3929 26.9599 35.2029 27.0399 35.0629 27.1999C34.9229 27.3599 34.8529 27.5599 34.8529 27.7999V29.1799C34.8529 29.4199 34.9329 29.6199 35.0929 29.7799C35.2529 29.9399 35.4529 30.0199 35.6929 30.0199C35.9329 30.0199 36.1229 29.9399 36.2629 29.7799C36.4029 29.6199 36.4729 29.4199 36.4729 29.1799V27.7999C36.4729 27.5599 36.3929 27.3599 36.2329 27.1999C36.0729 27.0399 35.8729 26.9599 35.6329 26.9599ZM27.8329 30.1399C28.0729 30.1399 28.2729 30.0599 28.4329 29.8999C28.5929 29.7399 28.6729 29.5399 28.6729 29.2999V27.8599C28.6729 27.6199 28.5929 27.4299 28.4329 27.2899C28.2729 27.1499 28.0729 27.0799 27.8329 27.0799C27.5929 27.0799 27.3929 27.1599 27.2329 27.3199C27.0729 27.4799 26.9929 27.6799 26.9929 27.9199L27.0529 29.2999C27.0529 29.5399 27.1229 29.7399 27.2629 29.8999C27.4029 30.0599 27.5929 30.1399 27.8329 30.1399ZM30.4729 30.1399C30.7129 30.1399 30.9029 30.0599 31.0429 29.8999C31.1829 29.7399 31.2529 29.5399 31.2529 29.2999V27.8599C31.2529 27.6199 31.1729 27.4299 31.0129 27.2899C30.8529 27.1499 30.6529 27.0799 30.4129 27.0799C30.2129 27.0799 30.0329 27.1599 29.8729 27.3199C29.7129 27.4799 29.6329 27.6599 29.6329 27.8599V29.2999C29.6329 29.5399 29.7129 29.7399 29.8729 29.8999C30.0329 30.0599 30.2329 30.1399 30.4729 30.1399ZM33.0529 30.1399C33.2929 30.1399 33.4929 30.0499 33.6529 29.8699C33.8129 29.6899 33.8929 29.4799 33.8929 29.2399V27.8599C33.8929 27.6199 33.8129 27.4199 33.6529 27.2599C33.4929 27.0999 33.2929 27.0199 33.0529 27.0199C32.8129 27.0199 32.6129 27.0999 32.4529 27.2599C32.2929 27.4199 32.2129 27.6199 32.2129 27.8599V29.2999C32.2129 29.5399 32.2929 29.7399 32.4529 29.8999C32.6129 30.0599 32.8129 30.1399 33.0529 30.1399Z" fill="#253241"/>
</svg>
