<svg width="61" height="61" viewBox="0 0 61 61" fill="none" xmlns="http://www.w3.org/2000/svg">
<g clip-path="url(#clip0_2_570)">
<path d="M12.3929 51.3599C12.1529 51.3599 11.9529 51.4399 11.7929 51.5999C11.6329 51.7599 11.5529 51.9599 11.5529 52.1999V52.9199C11.5529 53.1599 11.6329 53.3599 11.7929 53.5199C11.9529 53.6799 12.1529 53.7599 12.3929 53.7599C12.6329 53.7599 12.8329 53.6799 12.9929 53.5199C13.1529 53.3599 13.2329 53.1599 13.2329 52.9199V52.1999C13.2329 51.9599 13.1529 51.7599 12.9929 51.5999C12.8329 51.4399 12.6329 51.3599 12.3929 51.3599ZM19.5329 9.83987H22.5329C22.7329 9.79987 22.8829 9.69987 22.9829 9.53988C23.0829 9.37988 23.1329 9.20987 23.1329 9.02987C23.1329 8.84987 23.0829 8.67987 22.9829 8.51987C22.8829 8.35987 22.7329 8.25987 22.5329 8.21988H19.5329C19.3329 8.25987 19.1829 8.35987 19.0829 8.51987C18.9829 8.67987 18.9329 8.84987 18.9329 9.02987C18.9329 9.20987 18.9829 9.37988 19.0829 9.53988C19.1829 9.69987 19.3329 9.79987 19.5329 9.83987ZM19.5329 7.01987H22.5329C22.7329 6.97987 22.8829 6.87988 22.9829 6.71988C23.0829 6.55988 23.1329 6.38987 23.1329 6.20987C23.1329 6.02987 23.0829 5.85987 22.9829 5.69987C22.8829 5.53988 22.7329 5.43987 22.5329 5.39988H19.5329C19.3329 5.43987 19.1829 5.53988 19.0829 5.69987C18.9829 5.85987 18.9329 6.02987 18.9329 6.20987C18.9329 6.38987 18.9829 6.55988 19.0829 6.71988C19.1829 6.87988 19.3329 6.97987 19.5329 7.01987ZM5.73294 57.1199H28.4729V57.0599V58.6799C28.4729 59.0799 28.6129 59.4199 28.8929 59.6999C29.1729 59.9799 29.5129 60.1199 29.9129 60.1199H31.8929C32.2929 60.1199 32.6329 59.9799 32.9129 59.6999C33.1929 59.4199 33.3329 59.0799 33.3329 58.6799V57.1199L48.3329 57.0599V58.5599C48.3329 58.9599 48.4729 59.2999 48.7529 59.5799C49.0329 59.8599 49.3729 59.9999 49.7729 59.9999H51.7529C52.1529 59.9999 52.4929 59.8499 52.7729 59.5499C53.0529 59.2499 53.1929 58.8999 53.1929 58.4999V56.8799C53.5929 56.7199 53.9229 56.4699 54.1829 56.1299C54.4429 55.7899 54.5729 55.3999 54.5729 54.9599L55.2929 50.2799V50.0999C55.2929 49.2199 55.0129 48.4599 54.4529 47.8199C53.9729 47.2999 53.3929 46.9799 52.7129 46.8599L50.3729 42.6599C49.8929 41.7799 49.3929 41.1199 48.8729 40.6799C48.1929 40.0399 47.4129 39.7199 46.5329 39.7199L34.9529 39.8399C34.1529 39.8399 33.4229 40.0899 32.7629 40.5899C32.1029 41.0899 31.5329 41.8399 31.0529 42.8399L30.6329 43.5599L26.6729 41.8799V38.0999H27.3329C27.8129 38.0999 28.2429 37.9599 28.6229 37.6799C29.0029 37.3999 29.2729 37.0399 29.4329 36.5999H30.6929C31.6529 36.5999 32.4529 36.2599 33.0929 35.5799C33.7329 34.8999 34.0529 34.0799 34.0529 33.1199V32.3399H34.4129C35.2129 32.3399 35.9029 32.0499 36.4829 31.4699C37.0629 30.8899 37.3529 30.1999 37.3529 29.3999V28.7399H38.0129C38.2529 28.7399 38.4529 28.6599 38.6129 28.4999C38.7729 28.3399 38.8529 28.1399 38.8529 27.8999C38.8529 27.6599 38.7729 27.4599 38.6129 27.2999C38.4529 27.1399 38.2529 27.0599 38.0129 27.0599H37.3529V26.5199C37.3529 25.7999 37.1329 25.1699 36.6929 24.6299C36.2529 24.0899 35.6929 23.7399 35.0129 23.5799V20.6999C35.2129 20.6599 35.3729 20.5599 35.4929 20.3999C35.6129 20.2399 35.6529 20.0599 35.6129 19.8599V16.6799C35.6129 16.4399 35.5329 16.2399 35.3729 16.0799C35.2129 15.9199 35.0129 15.8399 34.7729 15.8399H33.9329C33.7729 12.9199 32.8329 10.2999 31.1129 7.97987C29.4729 5.73988 27.3529 4.17987 24.7529 3.29987L24.8729 2.45987C24.8729 2.21988 24.7929 2.00988 24.6329 1.82988C24.4729 1.64988 24.2729 1.55988 24.0329 1.55988H17.7329C17.4929 1.55988 17.2929 1.64988 17.1329 1.82988C16.9729 2.00988 16.8929 2.21988 16.8929 2.45987L17.0129 3.29987C14.3729 4.17987 12.2329 5.73988 10.5929 7.97987C8.87294 10.3399 7.95294 12.9599 7.83294 15.8399H6.99294C6.75294 15.8399 6.56294 15.9199 6.42294 16.0799C6.28294 16.2399 6.21294 16.4399 6.21294 16.6799V19.8599C6.21294 20.0999 6.28294 20.3099 6.42294 20.4899C6.56294 20.6699 6.75294 20.7599 6.99294 20.7599H8.43294L8.55294 21.8999C8.07294 22.0599 7.67294 22.3299 7.35294 22.7099C7.03294 23.0899 6.81294 23.5199 6.69294 23.9999C6.61294 24.2799 6.57294 24.5599 6.57294 24.8399C6.57294 25.5999 6.79294 26.2899 7.23294 26.9099C7.67294 27.5299 8.25294 27.9799 8.97294 28.2599C9.09294 30.2999 9.69294 32.1899 10.7729 33.9299C11.8529 35.6699 13.2929 37.0399 15.0929 38.0399V41.8799L8.67294 44.6399H8.61294C7.57294 45.1599 6.72294 45.9099 6.06294 46.8899C5.40294 47.8699 5.01294 48.9399 4.89294 50.0999V56.2799C4.89294 56.5199 4.97294 56.7199 5.13294 56.8799C5.29294 57.0399 5.49294 57.1199 5.73294 57.1199ZM30.0929 58.4999V57.1799H31.6529L31.7129 58.4999H30.0929ZM49.9529 58.3199V56.9999H51.5129V58.3199H49.9529ZM32.5529 43.5599C32.7929 43.0399 33.0929 42.5999 33.4529 42.2399C33.9329 41.7199 34.4329 41.4599 34.9529 41.4599L46.5329 41.3999C46.9729 41.3999 47.3829 41.5599 47.7629 41.8799C48.1429 42.1999 48.5329 42.7199 48.9329 43.4399L50.7929 46.8599H49.4129C49.2129 46.0599 48.8029 45.4099 48.1829 44.9099C47.5629 44.4099 46.8429 44.1599 46.0229 44.1599C45.2029 44.1599 44.4829 44.4099 43.8629 44.9099C43.2429 45.4099 42.8329 46.0599 42.6329 46.8599L30.6329 46.9799L32.5529 43.5599ZM47.7329 46.8599H44.3729C44.5329 46.5399 44.7629 46.2799 45.0629 46.0799C45.3629 45.8799 45.6929 45.7799 46.0529 45.7799C46.5329 45.7799 46.9529 45.9399 47.3129 46.2599C47.5129 46.4199 47.6529 46.6199 47.7329 46.8599ZM28.9529 44.6399L29.8529 44.9999L28.9529 46.7399V44.6399ZM27.8729 50.2199C27.8729 49.8199 27.9929 49.4699 28.2329 49.1699C28.4729 48.8699 28.7929 48.6999 29.1929 48.6599L52.1729 48.4199H52.2329C52.6329 48.4199 52.9629 48.5799 53.2229 48.8999C53.4829 49.2199 53.6329 49.5999 53.6729 50.0399L52.9529 54.7799L52.8929 54.8999C52.8929 55.0199 52.8529 55.1299 52.7729 55.2299C52.6929 55.3299 52.5929 55.3799 52.4729 55.3799L29.0729 55.5599L28.9529 55.4999C28.7529 55.4199 28.6529 55.2799 28.6529 55.0799V54.9599L27.8729 50.2199ZM27.8729 36.0599C27.8729 36.2199 27.8329 36.3499 27.7529 36.4499C27.6729 36.5499 27.5529 36.5999 27.3929 36.5999H23.5529C23.3929 36.5999 23.2729 36.5499 23.1929 36.4499C23.1129 36.3499 23.0729 36.2199 23.0729 36.0599V35.4599C23.0729 35.2999 23.1129 35.1699 23.1929 35.0699C23.2729 34.9699 23.3929 34.9199 23.5529 34.9199H27.3929C27.5529 34.9199 27.6729 34.9699 27.7529 35.0699C27.8329 35.1699 27.8729 35.2999 27.8729 35.4599V36.0599ZM25.0529 38.8199V41.9399C23.6929 42.4999 22.2829 42.7799 20.8229 42.7799C19.3629 42.7799 17.9929 42.4999 16.7129 41.9399V38.8199C18.0729 39.3399 19.4629 39.5999 20.8829 39.5999C22.3029 39.5999 23.6929 39.3399 25.0529 38.8199ZM32.4329 33.1199C32.4329 33.5999 32.2629 34.0199 31.9229 34.3799C31.5829 34.7399 31.1729 34.9199 30.6929 34.9199H30.3329C30.8929 34.1199 31.3729 33.2799 31.7729 32.3999C31.8129 32.3999 31.8329 32.3799 31.8329 32.3399H32.4329V33.1199ZM31.0529 23.0999L30.9329 23.1599C30.2129 22.4799 29.6329 21.6799 29.1929 20.7599H31.0529V23.0999ZM35.7329 26.5199V29.3999C35.7329 29.7599 35.6029 30.0699 35.3429 30.3299C35.0829 30.5899 34.7729 30.7199 34.4129 30.7199H32.6729V29.1599C32.7529 28.6799 32.7929 28.1799 32.7929 27.6599H32.6729V25.1999H34.4129C34.7729 25.1999 35.0829 25.3299 35.3429 25.5899C35.6029 25.8499 35.7329 26.1599 35.7329 26.5199ZM32.6729 23.5799V20.7599H33.3929V23.5799H32.6729ZM16.4729 5.27987C16.9929 5.03988 17.5329 4.85987 18.0929 4.73988C18.2929 4.69987 18.4529 4.58987 18.5729 4.40987C18.6929 4.22987 18.7329 4.03988 18.6929 3.83987L18.6329 3.17987H23.1329L23.0729 3.83987C23.0329 4.03988 23.0729 4.22987 23.1929 4.40987C23.3129 4.58987 23.4729 4.69987 23.6729 4.73988C24.2329 4.85987 24.7729 5.03988 25.2929 5.27987V6.41988C25.2929 7.81987 24.9029 9.08987 24.1229 10.2299C23.3429 11.3699 22.3129 12.1999 21.0329 12.7199C19.6729 12.2399 18.5729 11.4199 17.7329 10.2599C16.8929 9.09987 16.4729 7.79987 16.4729 6.35987V5.27987ZM11.9729 8.99987C12.7329 7.87988 13.6929 6.95987 14.8529 6.23988V6.35987C14.8529 8.15987 15.3829 9.78988 16.4429 11.2499C17.5029 12.7099 18.8929 13.7199 20.6129 14.2799L20.7929 14.3399C20.8729 14.3799 20.9529 14.3999 21.0329 14.3999C21.1129 14.3999 21.1929 14.3799 21.2729 14.3399C22.9529 13.7399 24.3129 12.7199 25.3529 11.2799C26.3929 9.83987 26.9129 8.21988 26.9129 6.41988V6.23988C28.0329 6.99987 28.9929 7.89988 29.7929 8.93987C31.3129 10.9799 32.1329 13.2799 32.2529 15.8399H9.51294C9.67294 13.3199 10.4929 11.0399 11.9729 8.99987ZM7.83294 19.1399V17.4599H33.9929V19.1399H28.4129C28.2529 19.0199 28.0729 18.9799 27.8729 19.0199C27.7529 19.0199 27.6729 19.0599 27.6329 19.1399H7.83294ZM10.9529 20.7599L10.7729 22.7399L10.2329 22.4399L10.1129 20.7599H10.9529ZM10.5329 27.6599V27.5999C10.5329 27.3999 10.4729 27.2299 10.3529 27.0899C10.2329 26.9499 10.0729 26.8599 9.87294 26.8199C9.39294 26.7399 8.99294 26.5099 8.67294 26.1299C8.35294 25.7499 8.19294 25.3199 8.19294 24.8399C8.23294 24.6799 8.27294 24.5199 8.31294 24.3599C8.39294 23.9199 8.63294 23.6199 9.03294 23.4599C9.15294 23.6199 9.31294 23.7599 9.51294 23.8799L10.8329 24.5399C11.1929 24.7399 11.5329 24.7399 11.8529 24.5399C12.1729 24.3399 12.3329 24.0599 12.3329 23.6999L12.5729 20.7599H27.4529C27.9729 22.1999 28.7929 23.4399 29.9129 24.4799L30.0329 24.5399C30.1929 24.6999 30.3729 24.7799 30.5729 24.7799H31.0529V29.0399C30.8129 30.8799 30.1129 32.5399 28.9529 34.0199C28.5129 33.5399 27.9729 33.2999 27.3329 33.2999H23.6129C23.0129 33.2999 22.5029 33.4999 22.0829 33.8999C21.6629 34.2999 21.4529 34.7999 21.4529 35.3999V35.9999C21.4529 36.7599 21.7729 37.3599 22.4129 37.7999C21.8929 37.8799 21.3729 37.9199 20.8529 37.9199C18.9729 37.9199 17.2429 37.4599 15.6629 36.5399C14.0829 35.6199 12.8329 34.3699 11.9129 32.7899C10.9929 31.2099 10.5329 29.4999 10.5329 27.6599ZM14.4929 43.9199L15.8729 43.3199C17.4729 44.0399 19.1529 44.3999 20.9129 44.3999C22.6729 44.3999 24.3529 44.0399 25.9529 43.3199L27.2729 43.9199V47.7599C26.8329 48.1199 26.5129 48.6599 26.3129 49.3799H14.4929V43.9199ZM11.9129 44.9999L12.8729 44.6399V49.3799H11.9129V44.9999ZM10.7729 50.9999H26.3129L26.9729 55.1999C27.0129 55.2399 27.0329 55.3199 27.0329 55.4399H10.7729V50.9999ZM6.51294 50.2199C6.59294 49.3399 6.87294 48.5399 7.35294 47.8199C7.83294 47.0999 8.47294 46.5399 9.27294 46.1399L10.2929 45.7199V49.3799H9.87294C9.67294 49.3799 9.49294 49.4599 9.33294 49.6199C9.17294 49.7799 9.09294 49.9599 9.09294 50.1599V55.4399H6.51294V50.2199ZM30.9929 54.7199C31.5929 54.7199 32.1029 54.5099 32.5229 54.0899C32.9429 53.6699 33.1529 53.1599 33.1529 52.5599C33.1529 51.9599 32.9429 51.4499 32.5229 51.0299C32.1029 50.6099 31.5929 50.3999 30.9929 50.3999C30.3929 50.3999 29.8829 50.6099 29.4629 51.0299C29.0429 51.4499 28.8329 51.9599 28.8329 52.5599C28.8329 53.1599 29.0429 53.6699 29.4629 54.0899C29.8829 54.5099 30.3929 54.7199 30.9929 54.7199ZM30.6329 52.1999C30.7529 52.1199 30.8729 52.0799 30.9929 52.0799C31.2329 52.0799 31.3929 52.1899 31.4729 52.4099C31.5529 52.6299 31.5129 52.8199 31.3529 52.9799C31.2329 53.0599 31.1129 53.0999 30.9929 53.0999C30.8329 53.0999 30.7029 53.0599 30.6029 52.9799C30.5029 52.8999 30.4529 52.7799 30.4529 52.6199C30.4529 52.4599 30.5129 52.3199 30.6329 52.1999ZM50.5529 54.6599C51.1529 54.6599 51.6729 54.4399 52.1129 53.9999C52.4329 53.6799 52.6429 53.2999 52.7429 52.8599C52.8429 52.4199 52.8029 51.9999 52.6229 51.5999C52.4429 51.1999 52.1629 50.8799 51.7829 50.6399C51.4029 50.3999 50.9929 50.2799 50.5529 50.2799C49.9529 50.2799 49.4429 50.4899 49.0229 50.9099C48.6029 51.3299 48.3929 51.8399 48.3929 52.4399C48.3929 53.0399 48.6029 53.5599 49.0229 53.9999C49.4429 54.4399 49.9529 54.6599 50.5529 54.6599ZM50.5529 51.9599C50.6729 51.9599 50.7929 52.0099 50.9129 52.1099C51.0329 52.2099 51.0929 52.3199 51.0929 52.4399C51.0929 52.5999 51.0429 52.7299 50.9429 52.8299C50.8429 52.9299 50.7129 52.9799 50.5529 52.9799C50.3929 52.9799 50.2729 52.9199 50.1929 52.7999C50.1129 52.6799 50.0729 52.5599 50.0729 52.4399C50.1129 52.1599 50.2729 51.9999 50.5529 51.9599ZM36.8729 53.4599C37.1129 53.4599 37.3129 53.3799 37.4729 53.2199C37.6329 53.0599 37.7129 52.8599 37.7129 52.6199V51.4199C37.7129 51.1799 37.6329 50.9899 37.4729 50.8499C37.3129 50.7099 37.1129 50.6399 36.8729 50.6399C36.6329 50.6399 36.4329 50.7199 36.2729 50.8799C36.1129 51.0399 36.0329 51.2399 36.0329 51.4799L36.0929 52.6799C36.0929 52.8799 36.1729 53.0599 36.3329 53.2199C36.4929 53.3799 36.6729 53.4599 36.8729 53.4599ZM44.6729 53.4599C45.2329 53.2999 45.5129 53.0199 45.5129 52.6199V51.3599C45.5129 51.1199 45.4329 50.9199 45.2729 50.7599C45.1129 50.5999 44.9129 50.5199 44.6729 50.5199C44.4329 50.5199 44.2329 50.5999 44.0729 50.7599C43.9129 50.9199 43.8329 51.1199 43.8329 51.3599V52.6199C43.8329 52.8599 43.9129 53.0599 44.0729 53.2199C44.2329 53.3799 44.4329 53.4599 44.6729 53.4599ZM39.4529 53.4599H39.5129C39.7529 53.4599 39.9429 53.3799 40.0829 53.2199C40.2229 53.0599 40.2929 52.8599 40.2929 52.6199V51.4199C40.2929 51.1799 40.2129 50.9899 40.0529 50.8499C39.8929 50.7099 39.6929 50.6399 39.4529 50.6399C39.2529 50.6399 39.0729 50.7199 38.9129 50.8799C38.7529 51.0399 38.6729 51.2199 38.6729 51.4199V52.6799C38.6729 52.8799 38.7529 53.0599 38.9129 53.2199C39.0729 53.3799 39.2529 53.4599 39.4529 53.4599ZM42.0929 53.4599C42.3329 53.4599 42.5229 53.3799 42.6629 53.2199C42.8029 53.0599 42.8729 52.8599 42.8729 52.6199V51.3599C42.8729 51.1199 42.8029 50.9199 42.6629 50.7599C42.5229 50.5999 42.3329 50.5199 42.0929 50.5199H42.0329C41.7929 50.5199 41.6029 50.5999 41.4629 50.7599C41.3229 50.9199 41.2529 51.1199 41.2529 51.3599V52.6199C41.2529 52.8599 41.3329 53.0599 41.4929 53.2199C41.6529 53.3799 41.8529 53.4599 42.0929 53.4599Z" fill="#253241"/>
</g>
<defs>
<clipPath id="clip0_2_570">
<rect width="60" height="60" fill="white" transform="matrix(1 0 0 -1 0.0928955 60.8398)"/>
</clipPath>
</defs>
</svg>
